<svg preserveAspectRatio="none" overflow="visible" style="display: block;" width="15.79" height="10.668" viewBox="0 0 15.79 10.668" fill="none" xmlns="http://www.w3.org/2000/svg">
<path id="Mobile Signal" d="M1.85742 6.66797C2.37034 6.66797 2.78613 7.11568 2.78613 7.66797V9.66797C2.78613 10.2203 2.37034 10.668 1.85742 10.668H0.928711C0.415797 10.668 0 10.2202 0 9.66797V7.66797C0 7.11569 0.415797 6.66798 0.928711 6.66797H1.85742ZM6.18945 4.66797C6.70237 4.66797 7.11816 5.11568 7.11816 5.66797V9.66797C7.11816 10.2203 6.70237 10.668 6.18945 10.668H5.26074C4.74783 10.668 4.33203 10.2202 4.33203 9.66797V5.66797C4.33203 5.11569 4.74783 4.66798 5.26074 4.66797H6.18945ZM14.8613 0C15.3742 0 15.79 0.447715 15.79 1V9.66699C15.7899 10.2191 15.3741 10.667 14.8613 10.667H13.9326C13.4198 10.667 13.0041 10.2191 13.0039 9.66699V1C13.0039 0.447721 13.4197 8.63646e-06 13.9326 0H14.8613ZM10.5254 2.33203C11.0383 2.33203 11.4541 2.77975 11.4541 3.33203V9.66504C11.4541 10.2173 11.0383 10.665 10.5254 10.665H9.59668C9.08377 10.665 8.66797 10.2173 8.66797 9.66504V3.33203C8.66797 2.77975 9.08377 2.33204 9.59668 2.33203H10.5254Z" fill="white"/>
</svg>
